<?xml version="1.0" encoding="UTF-8"?>
<svg xmlns="http://www.w3.org/2000/svg" xmlns:xlink="http://www.w3.org/1999/xlink" width="117pt" height="117pt" viewBox="0 0 117 117" version="1.1">
<g id="surface1">
<path style="fill:none;stroke-width:0.3985;stroke-linecap:butt;stroke-linejoin:miter;stroke:rgb(100%,0%,0%);stroke-opacity:1;stroke-miterlimit:10;" d="M 28.348581 -0.0001875 C 28.348581 15.656063 15.657555 28.347469 0.00177503 28.347469 C -15.654005 28.347469 -28.345031 15.656063 -28.345031 -0.0001875 C -28.345031 -15.656437 -15.654005 -28.347844 0.00177503 -28.347844 C 15.657555 -28.347844 28.348581 -15.656437 28.348581 -0.0001875 Z M 28.348581 -0.0001875 " transform="matrix(1.00003,0,0,-1,58.791194,58.492)"/>
<path style="fill:none;stroke-width:0.3985;stroke-linecap:butt;stroke-linejoin:miter;stroke:rgb(0%,0%,100%);stroke-opacity:1;stroke-miterlimit:10;" d="M 56.695387 -0.0001875 C 56.695387 31.312313 31.313336 56.695125 0.00177503 56.695125 C -31.309786 56.695125 -56.691837 31.312313 -56.691837 -0.0001875 C -56.691837 -31.312687 -31.309786 -56.6955 0.00177503 -56.6955 C 31.313336 -56.6955 56.695387 -31.312687 56.695387 -0.0001875 Z M 56.695387 -0.0001875 " transform="matrix(1.00003,0,0,-1,58.791194,58.492)"/>
</g>
</svg>
